<svg width="336" height="70" viewBox="0 0 336 70" fill="none" xmlns="http://www.w3.org/2000/svg">
<path d="M71.2236 35.6542C71.2255 43.2997 68.7721 50.7433 64.2257 56.8865C59.6793 63.0296 53.2806 67.5469 45.974 69.7715C45.1467 70.0181 44.2733 70.0677 43.4234 69.9165C42.5735 69.7652 41.7707 69.4173 41.079 68.9004C40.3872 68.3835 39.8257 67.7119 39.4391 66.9392C39.0526 66.1666 38.8517 65.3142 38.8526 64.45V59.795C38.8431 59.0346 39.0813 58.2918 39.531 57.679C39.9808 57.0662 40.6177 56.6167 41.3454 56.3985C46.359 55.0077 50.6991 51.845 53.5617 47.4961C56.4244 43.1473 57.6155 37.9071 56.9145 32.7464C56.2135 27.5857 53.6679 22.8542 49.7492 19.4285C45.8305 16.0029 40.8044 14.1152 35.6019 14.1152C30.3995 14.1152 25.3734 16.0029 21.4547 19.4285C17.536 22.8542 14.9903 27.5857 14.2893 32.7464C13.5883 37.9071 14.7795 43.1473 17.6421 47.4961C20.5048 51.845 24.8449 55.0077 29.8584 56.3985C30.5947 56.6079 31.2424 57.0525 31.7029 57.6646C32.1633 58.2767 32.4113 59.0227 32.409 59.7889V64.4363C32.4114 65.3014 32.2117 66.1551 31.8258 66.9292C31.44 67.7033 30.8788 68.3763 30.1869 68.8947C29.4951 69.413 28.6917 69.7622 27.8411 69.9145C26.9904 70.0667 26.116 70.0178 25.2876 69.7715C18.9729 67.8566 13.3139 64.223 8.94157 59.2762C4.5693 54.3294 1.65576 48.2637 0.525973 41.756C-0.603819 35.2482 0.0945554 28.5541 2.54319 22.4205C4.99183 16.2869 9.09445 10.9549 14.3934 7.01924C19.6924 3.08362 25.9793 0.699135 32.553 0.131774C39.1266 -0.435587 45.7284 0.836485 51.622 3.80609C57.5157 6.7757 62.4693 11.3261 65.9305 16.9496C69.3916 22.5732 71.2241 29.0488 71.2236 35.6542ZM96.8912 32.6533C104.881 32.6533 111.134 26.8205 111.134 17.5181C111.134 8.2172 104.861 2.60959 96.8912 2.60959C88.92 2.60959 82.6453 8.44394 82.6453 17.7509C82.6453 27.0594 88.8805 32.6487 96.8714 32.6487L96.8912 32.6533ZM96.8912 29.3024C91.1348 29.3024 86.453 24.9533 86.453 17.6352C86.453 10.3157 91.1348 5.96807 96.8897 5.96807C102.646 5.96807 107.334 10.3507 107.334 17.6352C107.334 24.9213 102.626 29.2963 96.8714 29.2963L96.8912 29.3024ZM134.301 28.9524C133.964 29.1046 133.597 29.1807 133.227 29.1731C132.541 29.1731 132.023 28.6557 132.023 27.7533V19.1448C132.023 14.0698 128.844 11.1009 123.308 11.1009C118.128 11.1009 114.586 13.7259 114.243 18.2835H117.933C118.192 15.7483 120.039 14.3285 123.048 14.3285C126.441 14.3285 128.229 16.1318 128.229 19.0611V20.4352H123.799C117.973 20.4352 113.752 22.3283 113.752 26.9178C113.752 30.2748 116.114 32.6335 120.873 32.6335C125.631 32.6335 127.49 30.3981 128.261 29.1989C128.337 30.1642 128.785 31.062 129.509 31.7031C130.234 32.3441 131.18 32.6783 132.146 32.635C132.959 32.6415 133.769 32.5256 134.547 32.2911L134.301 28.9524ZM121.67 29.555C118.839 29.555 117.635 28.4852 117.635 26.7155C117.635 24.3963 119.657 23.1896 123.606 23.1896H128.203V24.6352C128.203 26.58 125.904 29.5489 121.651 29.5489L121.67 29.555ZM151.868 32.4144H156.29L147.226 20.3774L155.474 11.3413H150.709L141.645 21.362V1.9172H137.863V32.4159H141.645V26.4126L144.777 22.9705L151.868 32.4144ZM171.091 10.5242C171.091 7.64655 173.111 5.98633 177.664 5.98633C181.704 5.98633 184.32 7.57502 184.32 11.1724H188.056C188.1 5.79307 184.106 2.65524 177.793 2.65524C171.48 2.65524 167.265 5.7535 167.265 10.6139C167.265 22.4379 184.624 16.3768 184.624 24.7205C184.664 27.6422 182.086 29.3222 177.877 29.3222C172.892 29.3222 170.231 27.2983 170.231 23.9413H166.494C166.494 29.5368 170.658 32.6731 177.58 32.6731C184.054 32.6731 188.444 29.4911 188.444 24.7205C188.418 12.5207 171.091 18.4585 171.091 10.4983V10.5242ZM204.496 28.8033C203.624 29.1658 202.686 29.3421 201.743 29.3207C198.312 29.3207 197.321 27.5981 197.321 25.4905V14.4974H204.152V11.3155H197.321V5.03981H193.753V11.3155H190.361V14.5872H193.539V25.4646C193.539 29.8533 196.459 32.5955 201.361 32.5955C202.486 32.6228 203.607 32.4491 204.671 32.0826L204.496 28.8033ZM209.138 28.5248C208.88 28.5154 208.624 28.5593 208.384 28.6537C208.144 28.7482 207.926 28.8911 207.743 29.0736C207.561 29.2561 207.418 29.4742 207.324 29.7144C207.23 29.9546 207.186 30.2117 207.195 30.4696C207.22 30.9784 207.439 31.4583 207.807 31.8098C208.175 32.1612 208.665 32.3573 209.174 32.3573C209.683 32.3573 210.172 32.1612 210.54 31.8098C210.909 31.4583 211.128 30.9784 211.152 30.4696C211.165 30.072 211.052 29.6805 210.83 29.3509C210.607 29.0213 210.287 28.7705 209.913 28.6344C209.665 28.5439 209.401 28.5066 209.138 28.5248ZM105.113 38.4359V50.9446H89.522V38.4359H85.7416V67.9348H89.522V54.3229H105.113V67.9348H108.895V38.4359H105.113ZM132.088 57.4409C132.088 50.6479 128.397 46.6746 122.518 46.6746C116.638 46.6746 112.463 51.147 112.463 57.4668C112.463 63.6572 116.03 68.1752 122.601 68.1752C128.229 68.1752 131.149 65.1226 131.965 61.2909H128.145C127.756 63.015 126.338 64.9476 122.641 64.9476C118.944 64.9476 116.672 62.4124 116.374 58.4133H132.088V57.4409ZM122.557 49.8702C125.736 49.8702 127.794 51.815 128.267 55.5935H116.457C117.059 52.0676 119.338 49.8702 122.557 49.8702ZM155.831 64.4942C155.494 64.6401 155.13 64.7127 154.763 64.7072C154.069 64.7072 153.557 64.1898 153.557 63.2874V54.6865C153.557 49.6176 150.379 46.6487 144.837 46.6487C139.656 46.6487 136.115 49.2418 135.771 53.8313H139.469C139.728 51.29 141.573 49.8702 144.577 49.8702C147.97 49.8702 149.757 51.6781 149.757 54.6029V55.9755H145.334C139.507 55.9755 135.28 57.8685 135.28 62.4581C135.28 65.815 137.642 68.1813 142.402 68.1813C147.161 68.1813 149.014 65.9444 149.789 64.7392C149.862 65.7062 150.309 66.6067 151.034 67.2494C151.759 67.8922 152.707 68.2265 153.674 68.1813C154.49 68.184 155.301 68.0682 156.084 67.8374L155.831 64.4942ZM143.204 65.0968C140.369 65.0968 139.164 64.0209 139.164 62.2572C139.164 59.9365 141.186 58.7313 145.141 58.7313H149.777V60.1892C149.777 62.1279 147.459 65.0968 143.204 65.0968ZM165.485 64.4926C165.174 64.635 164.836 64.7082 164.494 64.7072C164.313 64.7078 164.134 64.6705 163.969 64.5977C163.803 64.5249 163.654 64.4182 163.532 64.2845C163.41 64.1507 163.318 63.993 163.26 63.8213C163.203 63.6495 163.182 63.4677 163.199 63.2874V37.3981H159.417V64.0209C159.417 66.4709 160.926 68.1494 163.374 68.1494C164.187 68.1521 164.996 68.0363 165.775 67.8055L165.485 64.4926ZM181.297 64.3176C180.427 64.6802 179.492 64.8569 178.55 64.8365C175.113 64.8365 174.122 63.1185 174.122 61.0124V50.0452H180.953V46.8618H174.116V40.5815H170.554V46.8618H167.162V50.1031H170.334V61.0124C170.334 65.395 173.26 68.1433 178.156 68.1433C179.281 68.1733 180.402 67.9975 181.464 67.6244L181.297 64.3176ZM195.023 46.6746C191.785 46.6746 189.61 48.0487 188.283 49.9874V37.3981H184.533V67.9348H188.353V55.6772C188.353 52.0676 190.633 49.8444 194.064 49.8444C197.075 49.8444 198.791 51.7892 198.791 55.0289V67.9348H202.663V54.2133C202.663 49.6557 199.704 46.6746 195.023 46.6746Z" fill="#00694C"/>
<path d="M223.417 28.5174H222.147V67.9304H223.417V28.5174ZM323.71 54.1861C323.71 51.8791 322.486 50.2204 320.154 50.2204H318.595V58.1335H320.154C322.349 58.1335 323.71 56.6498 323.71 54.1861ZM301.21 54.1861C301.21 52.08 300.155 50.2204 297.215 50.2204H296.081V58.1335H297.227C299.869 58.1335 301.222 56.6376 301.222 54.1861H301.21ZM277.415 58.8989L275.051 52.5852L272.624 58.9004C272.733 58.9004 274.028 58.7376 275.025 58.7376C275.816 58.7452 276.605 58.7985 277.389 58.8989H277.415ZM258.25 59.0359L255.899 52.5076L253.58 58.762H254.876C256.022 58.7549 257.167 58.8568 258.294 59.0663L258.25 59.0359ZM331.661 54.2196C331.661 58.7559 328.08 61.673 322.174 61.673H318.595V67.967H302.557L296.081 59.4239V67.935H280.613L278.917 63.248C277.635 63.0163 276.334 62.8992 275.031 62.898C273.713 62.9049 272.397 63.0179 271.096 63.2359L269.386 67.935H261.474L260.179 64.3635C261.637 64.7333 263.035 65.3115 264.329 66.0815L264.66 65.2704C261.828 63.6711 258.626 62.846 255.374 62.8783C251.677 62.8783 249.327 63.7806 245.488 63.7806C241.669 63.7753 237.932 62.6679 234.726 60.5911L236.364 56.5326C236.792 56.8187 240.943 59.4954 245.714 59.4954C246.435 59.4985 247.154 59.462 247.87 59.3859L253.05 46.725H261.661L266.796 60.0265L272.222 46.7265H280.84L288.384 66.2961V46.7265H298.691C305.697 46.7265 309.128 49.9678 309.128 54.1861C309.126 55.5426 308.719 56.8676 307.958 57.9904C307.198 59.1131 306.119 59.9824 304.861 60.4861L310.896 67.06V46.7265H322.142C328.366 46.7265 331.628 49.8765 331.628 54.1861L331.661 54.2196ZM251.62 63.91H251.671L250.188 67.9274H244.31L245.746 64.4867H245.798C247.754 64.4715 249.704 64.2783 251.626 63.9085L251.62 63.91ZM333.397 48.7991H333.675C333.993 48.7991 334.257 48.6835 334.257 48.3852C334.257 48.087 334.102 47.9637 333.675 47.9637C333.582 47.9587 333.49 47.9587 333.397 47.9637V48.7991ZM333.397 50.0956H333.021V47.7293C333.234 47.6913 333.452 47.673 333.669 47.6715C333.93 47.6558 334.189 47.7195 334.412 47.8541C334.487 47.9112 334.547 47.9863 334.585 48.0725C334.624 48.1586 334.64 48.2531 334.633 48.3472C334.632 48.4826 334.586 48.614 334.502 48.7198C334.417 48.8257 334.299 48.8997 334.168 48.93C334.374 48.968 334.517 49.1552 334.569 49.5128C334.587 49.7152 334.637 49.9146 334.718 50.1017H334.317C334.226 49.9105 334.171 49.7042 334.154 49.493C334.151 49.4305 334.135 49.3692 334.107 49.3135C334.079 49.2575 334.04 49.2082 333.991 49.1689C333.943 49.129 333.888 49.0996 333.828 49.0829C333.768 49.0661 333.705 49.0622 333.643 49.0715H333.371L333.397 50.0956ZM333.798 47.037C333.527 47.0242 333.256 47.0721 333.006 47.1774C332.756 47.2826 332.532 47.4425 332.351 47.6453C332.17 47.8482 332.037 48.0888 331.961 48.3498C331.885 48.6107 331.868 48.8854 331.912 49.1537C331.99 49.6016 332.233 50.004 332.592 50.2819C332.952 50.5599 333.402 50.6935 333.854 50.6563C334.307 50.6191 334.729 50.414 335.039 50.0811C335.348 49.7482 335.522 49.3116 335.527 48.857C335.535 48.6235 335.496 48.3908 335.412 48.1725C335.329 47.9543 335.203 47.755 335.042 47.5863C334.716 47.2457 334.269 47.0482 333.798 47.037ZM333.798 46.6991C334.224 46.697 334.64 46.8214 334.995 47.0566C335.35 47.2918 335.626 47.6272 335.791 48.0201C335.955 48.4131 335.998 48.846 335.916 49.2639C335.834 49.6819 335.63 50.066 335.33 50.3676C335.029 50.6692 334.646 50.8747 334.229 50.958C333.812 51.0413 333.379 50.9987 332.986 50.8356C332.593 50.6725 332.257 50.3961 332.022 50.0417C331.786 49.6873 331.66 49.2707 331.661 48.8448C331.657 48.5624 331.71 48.2821 331.815 48.0203C331.921 47.7585 332.078 47.5204 332.277 47.32C332.476 47.1199 332.713 46.9618 332.975 46.8552C333.236 46.7485 333.516 46.6955 333.798 46.6991ZM243.804 35.9267C243.804 37.5276 242.328 38.5974 240.152 38.5974C237.828 38.5974 236.43 37.5413 236.43 35.668H237.659C237.659 36.788 238.553 37.4698 240.25 37.4698C241.66 37.4698 242.528 36.9067 242.508 35.9267C242.508 33.1267 236.682 35.1613 236.682 31.188C236.682 29.5552 238.1 28.5174 240.216 28.5174C242.334 28.5174 243.68 29.575 243.668 31.3767H242.411C242.411 30.1776 241.531 29.645 240.172 29.645C238.643 29.645 237.97 30.1898 237.97 31.1622C237.977 33.8328 243.804 31.8378 243.804 35.9267ZM251.688 35.3059H246.404C246.509 36.648 247.272 37.4972 248.51 37.4972C249.745 37.4972 250.232 36.8489 250.361 36.2722H251.656C251.384 37.5687 250.401 38.5852 248.51 38.5852C246.301 38.5852 245.111 37.0696 245.111 34.9878C245.111 32.9076 246.509 31.3661 248.484 31.3661C250.458 31.3661 251.721 32.7067 251.721 34.9878L251.688 35.3059ZM246.438 34.3593H250.401C250.244 33.0628 249.552 32.4146 248.458 32.4146C247.939 32.4258 247.443 32.6321 247.069 32.9923C246.695 33.3526 246.469 33.8406 246.438 34.3593ZM255.45 38.4696C255.187 38.5471 254.914 38.586 254.64 38.5852C254.459 38.5899 254.28 38.5567 254.113 38.4878C253.946 38.419 253.795 38.3159 253.67 38.1852C253.545 38.0545 253.449 37.8991 253.387 37.729C253.326 37.5589 253.3 37.3778 253.313 37.1974V28.2587H254.608V36.9509C254.602 37.0117 254.608 37.0726 254.628 37.1304C254.646 37.1883 254.677 37.2415 254.718 37.2862C254.759 37.3309 254.809 37.366 254.865 37.3891C254.921 37.4131 254.981 37.425 255.041 37.4241C255.156 37.4266 255.269 37.4026 255.373 37.3541L255.45 38.468V38.4696ZM262.763 35.3059H257.481C257.584 36.648 258.347 37.4972 259.591 37.4972C260.834 37.4972 261.307 36.8489 261.436 36.2722H262.731C262.459 37.5687 261.476 38.5852 259.585 38.5852C257.384 38.5852 256.186 37.0696 256.186 34.9878C256.186 32.9076 257.584 31.3661 259.559 31.3661C261.533 31.3661 262.797 32.7067 262.797 34.9878L262.763 35.3059ZM257.513 34.3593H261.476C261.321 33.0628 260.627 32.4146 259.533 32.4146C259.014 32.4258 258.518 32.6321 258.144 32.9923C257.77 33.3526 257.544 33.8406 257.513 34.3593ZM263.997 35.0076C263.997 32.8878 265.37 31.3706 267.372 31.3706C269.217 31.3706 270.298 32.4085 270.485 34.0291H269.132C269.104 33.5902 268.905 33.1799 268.578 32.8856C268.252 32.5914 267.823 32.4365 267.384 32.4541C266.089 32.4541 265.292 33.4524 265.292 34.9802C265.292 36.5111 266.043 37.5033 267.358 37.5033C267.794 37.5284 268.223 37.3829 268.554 37.0976C268.885 36.8122 269.092 36.4093 269.132 35.9739H270.485C270.272 37.5489 269.19 38.5654 267.3 38.5654C265.151 38.5852 263.997 37.0817 263.997 35.0076ZM276.936 36.187C276.936 37.6707 276.127 38.5654 274.67 38.5654C274.352 38.5934 274.033 38.5508 273.734 38.4406C273.435 38.3304 273.164 38.1554 272.941 37.928C272.717 37.7007 272.547 37.4267 272.441 37.1257C272.336 36.8247 272.299 36.5041 272.332 36.187V32.5302H271.265V31.4346H272.403V29.3285H273.615V31.4346H276.205V32.5043H273.615V36.187C273.615 37.0939 273.951 37.482 274.67 37.482C275.389 37.482 275.778 37.1259 275.778 36.187H276.936ZM284.602 35.3059H279.324C279.429 36.648 280.192 37.4972 281.429 37.4972C282.665 37.4972 283.146 36.8489 283.275 36.2722H284.57C284.292 37.5687 283.313 38.5852 281.423 38.5852C279.215 38.5852 278.017 37.0696 278.017 34.9878C278.017 32.9076 279.415 31.3661 281.396 31.3661C283.378 31.3661 284.634 32.7067 284.634 34.9878L284.602 35.3059ZM279.358 34.3593H283.32C283.164 33.0628 282.472 32.4146 281.378 32.4146C280.859 32.4258 280.363 32.6321 279.989 32.9923C279.614 33.3526 279.389 33.8406 279.358 34.3593ZM292.45 28.2587V38.5076H291.206V37.3267C290.951 37.7304 290.594 38.0594 290.172 38.2804C289.749 38.5014 289.275 38.6065 288.799 38.5852C286.856 38.5852 285.561 37.2111 285.561 35.0593C285.561 32.9061 286.856 31.3646 288.862 31.3646C289.317 31.3356 289.771 31.427 290.179 31.6295C290.587 31.8319 290.934 32.1384 291.187 32.518V28.2587H292.45ZM291.155 35.143V34.825C291.177 34.3664 291.06 33.9118 290.819 33.5211C290.578 33.1304 290.225 32.8221 289.805 32.6367C289.526 32.5143 289.226 32.4496 288.922 32.4465C287.627 32.4465 286.83 33.5026 286.83 35.0396C286.83 36.5765 287.619 37.5033 288.888 37.5033C289.352 37.5084 289.806 37.3712 290.189 37.1103C290.572 36.8494 290.866 36.4772 291.032 36.0439C291.141 35.7563 291.193 35.4504 291.181 35.143H291.155ZM304.183 34.8843C304.183 37.068 302.856 38.5852 300.88 38.5852C300.425 38.618 299.97 38.5275 299.562 38.3232C299.154 38.1189 298.808 37.8083 298.562 37.4241L298.524 38.5076H297.294V28.2587H298.589V32.6215C298.844 32.2174 299.2 31.8881 299.623 31.6673C300.046 31.4464 300.52 31.342 300.997 31.3646C302.888 31.3646 304.183 32.7311 304.183 34.8843ZM302.888 34.8843C302.888 33.3793 302.091 32.4146 300.822 32.4146C300.518 32.4166 300.218 32.4796 299.939 32.5997C299.66 32.7198 299.407 32.8946 299.197 33.1138C298.986 33.3331 298.821 33.5923 298.712 33.8763C298.603 34.1602 298.552 34.4631 298.562 34.7672V35.0852C298.547 35.3899 298.593 35.6946 298.697 35.9811C298.802 36.2677 298.963 36.5302 299.171 36.753C299.38 36.9753 299.632 37.1529 299.911 37.275C300.19 37.3972 300.492 37.4614 300.796 37.4637C302.066 37.4956 302.888 36.4456 302.888 34.9163V34.8843ZM311.668 31.4361L308.986 38.5076L308.682 39.305C308.035 40.9515 307.387 41.4704 306.189 41.4704C305.83 41.4781 305.472 41.4188 305.135 41.2954L305.238 40.1739C305.442 40.2652 305.662 40.3139 305.885 40.317C306.24 40.3511 306.594 40.2558 306.883 40.0484C307.173 39.8411 307.377 39.5359 307.459 39.1893L307.634 38.7876L304.849 31.4376H306.293L308.087 36.4593C308.178 36.7059 308.254 36.957 308.313 37.2111H308.345C308.397 36.957 308.464 36.7059 308.547 36.4593L310.365 31.4376L311.668 31.4361Z" fill="#EE3124"/>
</svg>
