<svg width="544" height="556" viewBox="0 0 544 556" fill="none" xmlns="http://www.w3.org/2000/svg">
<path d="M30.5272 231.284C39.0369 233.995 47.7656 235.962 56.6153 237.163C59.6862 237.66 62.687 238.306 65.6877 238.88C65.404 242.105 63.0438 243.109 61.6165 244.828C49.251 259.665 46.4667 276.292 52.8951 294.279C57.5425 307.396 66.6908 316.711 78.9101 323.09C89.632 328.682 101.138 330.615 113.143 330.759C128.937 330.902 144.803 331.332 160.599 331.618C161.67 332.335 162.956 332.478 164.027 332.622C162.026 332.981 160.313 335.274 157.952 334.917C156.525 335.204 155.165 335.491 153.738 335.704C141.445 337.21 129.153 338.714 116.858 340.147C110.856 340.866 104.852 341.94 99.494 345.022C84.271 353.764 75.6228 366.808 75.6228 384.511C75.6228 402.428 83.6978 416.045 99.4209 424.933C100.921 425.72 102.565 426.437 103.995 427.296C123.506 438.837 144.516 446.649 166.387 452.238C168.171 452.668 171.031 452.095 171.175 454.748C171.245 456.394 169.101 457.254 167.531 458.114C166.244 458.83 165.1 459.834 163.743 460.193C159.669 461.197 157.669 464.279 155.738 467.575C144.016 487.785 150.234 513.656 169.961 526.271C184.324 535.516 199.977 542.111 216.054 547.773C225.01 550.942 234.325 552.989 243.786 553.865C247.216 554.152 250.647 554.725 254.078 555.155C263.01 556.301 271.871 555.368 280.876 554.582C283.639 554.356 286.293 553.41 288.576 551.838C290.858 550.266 292.689 548.123 293.885 545.623C296.243 540.891 295.956 535.589 294.956 530.356C294.242 526.487 291.525 524.551 288.451 522.761C288.238 522.618 288.024 522.401 287.808 522.185C286.024 520.682 285.878 519.319 287.451 517.815C288.524 516.812 289.738 516.023 290.738 515.019C293.099 512.51 293.242 510.074 291.455 507.208C290.168 505.201 288.384 503.982 286.307 502.835C282.88 500.902 282.593 499.396 283.807 495.67C284.38 494.02 285.164 492.444 285.451 490.794C285.807 488.358 287.308 487.355 289.454 486.855C300.46 484.272 310.679 479.473 320.827 474.671C326.254 471.95 331.36 468.632 336.05 464.779C346.199 456.824 351.057 447.366 345.055 434.608C344.269 432.815 345.342 431.885 346.913 431.526C353.631 429.806 360.205 427.87 366.996 426.51C384.78 422.912 402.6 419.496 420.454 416.262C426.148 415.339 431.609 413.318 436.533 410.313C449.896 401.998 456.614 390.03 455.044 373.903C454.614 369.101 453.186 364.875 449.039 362.006C448.446 361.693 447.972 361.194 447.689 360.586C447.405 359.979 447.328 359.295 447.469 358.64C449.112 358.21 450.97 357.563 452.9 357.277C460.045 356.203 467.193 355.27 474.268 354.337C486.56 352.761 498.852 351.401 511.145 349.681C523.867 347.888 533.872 341.653 539.804 329.899C551.023 307.896 538.73 281.811 514.646 276.289C512.575 275.792 510.001 276.435 508.431 274.429C508.501 274.069 508.431 273.639 508.571 273.569C510.358 272.636 512.218 271.776 514.005 270.917C531.942 261.672 540.16 240.383 533.015 221.466C528.585 209.998 520.65 202.186 509.214 197.887C501.64 195.091 493.708 193.228 485.703 192.512C474.268 191.292 462.762 190.435 451.256 189.359C450.04 189.213 448.326 189.716 447.826 187.35C449.949 185.956 452.093 184.595 454.257 183.267C457.238 181.479 459.896 179.201 462.118 176.528C472.481 164.274 475.341 150.3 469.98 135.249C464.619 120.053 453.4 111.238 437.534 108.801C431.254 107.956 424.929 107.502 418.593 107.441C400.443 107.011 382.289 106.725 364.209 106.365C361.779 102.639 365.28 103.642 366.853 102.996C374.358 100.919 381.789 98.7696 389.294 96.7603C396.296 94.8973 403.087 92.5342 409.018 88.232C426.028 75.764 432.889 55.2649 427.098 34.3388C422.097 16.2058 405.087 2.30182 385.363 0.44172C379.062 -0.0602914 372.734 -0.132601 366.423 0.225293C344.269 1.15534 322.184 3.52141 300.103 5.38444C259.079 8.89406 218.057 12.12 176.822 12.6961C157.525 12.9798 138.228 12.6961 119.002 10.6869C108.499 9.61353 98.2071 6.3876 87.4853 7.67739C78.9101 5.95767 70.2619 7.32058 61.6867 6.67422C60.5417 6.57872 59.3892 6.62687 58.2561 6.81753C55.8988 7.17727 54.4686 8.18043 53.2549 10.6869C49.9646 17.5687 49.6078 25.1641 46.8937 32.0459C44.5335 37.9947 45.4636 44.66 43.0331 50.5357C41.1029 55.338 41.603 60.1404 42.6763 65.0129C43.7497 69.8152 46.5369 72.5381 51.2515 73.6115C59.3996 75.4043 67.4746 77.5539 75.6959 79.0602C91.5593 82.0697 107.639 83.5057 123.719 84.4357C125.506 87.6587 122.719 86.7989 121.292 87.2288C119.075 87.802 116.861 88.3753 114.574 88.9485C94.4197 93.6075 80.5538 109.804 79.0534 130.517C78.9832 131.95 79.0534 133.456 78.9832 134.889C78.7668 137.902 78.3398 138.399 75.5526 138.902C73.5492 139.262 71.5487 139.405 69.5482 139.692C57.6156 141.482 45.6069 143.201 33.8848 145.927C25.6826 147.787 18.2343 152.083 12.5171 158.252C7.87519 163.101 4.3828 168.931 2.29829 175.312C-5.49304 198.604 7.22929 223.686 30.5272 231.284Z" fill="#D8E5E7"/>
</svg>
