<svg width="567" height="402" viewBox="0 0 567 402" fill="none" xmlns="http://www.w3.org/2000/svg">
<path d="M216.112 371.227C215.715 373.786 215.595 397.618 215.595 397.618L265.207 398.382C265.207 398.382 266.752 392.164 259.303 388.881C251.854 385.598 241.485 374.811 238.941 361.907L216.112 371.227ZM271.586 372.265C271.295 374.832 272.103 398.65 272.103 398.65L321.716 397.685C321.716 397.685 323.02 391.414 315.451 388.392C307.881 385.371 297.094 374.945 294.053 362.155L271.586 372.265Z" fill="#CBEFD4"/>
<path d="M334.778 132.874C334.778 132.874 350.597 124.62 356.678 124.62C362.759 124.62 371.257 127.695 371.463 129.183C371.668 130.67 371.321 136.727 371.321 136.727L346.153 144.861L341.667 149.189L334.778 132.874ZM279.559 15.5104C279.559 15.5104 282.742 20.7297 281.813 26.6123C280.885 32.4949 277.256 50.5179 268.269 50.002C259.282 49.4861 262.663 49.5397 262.663 49.5397C262.663 49.5397 259.955 54.6719 262.337 59.6835C264.718 64.6951 261.585 72.7619 261.033 72.7552C260.48 72.7485 248.984 73.2912 248.984 73.2912L237.878 53.1912L240.004 28.1399L255.759 12.147L279.559 15.5104Z" fill="#CE785B"/>
<path d="M281.154 17.7548C280.325 18.4784 272.784 23.222 268.751 24.1868C265.1 25.0243 261.34 25.3606 257.588 25.1851C257.588 25.1851 255.32 20.5755 251.571 22.4247C245.787 25.2856 256.022 41.9284 241.138 52.2598C231.675 58.7519 221.726 64.5872 211.37 69.72C211.37 69.72 205.941 62.1222 213.794 53.8343C221.647 45.5464 226.552 44.8831 230.918 31.6774C235.284 18.4717 242.109 2.35151 260.94 3.40341C279.772 4.45531 281.154 17.7548 281.154 17.7548Z" fill="#343333"/>
<path d="M209.244 161.651C219.969 170.618 230.145 180.157 239.72 190.22C261.514 212.913 266.022 227.941 266.022 227.941L286.335 183.674C279.035 127.106 276.015 97.8201 276.015 97.8201L261.529 57.6201L252.201 70.4372L241.095 56.6352L240.266 55.5498L233.668 64.4139L213.312 111.984C213.312 111.984 211.555 134.603 209.258 161.644" fill="#C3B4E2"/>
<path d="M277.121 221.743L289.049 165.55L231.967 169.202L206.834 237.656L216.112 371.227H245.376L263.031 288.08V369.411H296.654V221.743H277.121Z" fill="#006450"/>
<path d="M260.012 136.418L240.876 135.48L240.77 128.512L241.131 56.6215V52.2598L231.719 55.9716C231.719 55.9716 229.593 56.6081 226.375 57.7203C219.401 60.1323 207.487 64.8089 202.192 70.0282C196.317 75.817 182.191 114.509 179.512 140.673V140.733C178.999 145.711 178.951 150.722 179.371 155.708C180.079 163.118 185.572 169.108 192.908 171.48L190.661 293.42L238.48 292.81L240.748 169.979C244.405 169.912 259.481 167.111 259.481 167.111L260.012 136.418ZM261.593 54.6584L267.376 230.098L294.351 228.758L292.062 181.744C292.062 181.744 298.582 183.325 315.202 171.024C325.09 163.747 334.507 155.916 343.404 147.574L336.522 125.652L301.027 139.822C301.027 139.822 294.925 77.7198 286.385 70.9595C277.844 64.1992 261.578 54.6584 261.578 54.6584" fill="#BFE8CA"/>
<path d="M259.771 142.998C259.771 142.998 266.469 139.481 269.453 138.61C272.436 137.739 280.601 135.501 280.601 135.501C280.601 135.501 283.117 136.533 280.672 138.415C278.227 140.298 272.344 143.856 272.344 143.856C272.344 143.856 282.494 147.527 286.619 148.787C290.744 150.047 299.738 149.223 299.78 151.212C299.823 153.202 295.733 153.276 294.11 155.299C292.487 157.323 291.374 159.319 288.674 158.71C285.974 158.1 284.152 159.38 282.231 160.458C280.311 161.537 275.548 162.891 272.309 161.396C269.07 159.902 259.403 156.298 259.403 156.298L259.771 142.998Z" fill="#C17D60"/>
<path d="M269.722 367.549L267.532 397.853H209.223C209.223 397.853 208.911 394.242 213.561 391.93C218.38 389.545 233.675 378.383 237.658 372.46C237.835 372.192 238.013 371.917 238.183 371.622C240.245 372.714 243.725 373.632 249.523 373.11C257.319 372.44 265.051 369.599 269.722 367.549Z" fill="#C5B4E2"/>
<path d="M270.537 356.286L269.722 367.549C265.044 369.599 257.34 372.433 249.523 373.11C243.718 373.612 240.238 372.714 238.183 371.622C241.84 365.492 243.923 354.691 243.923 354.691L270.537 356.286ZM367.607 78.5039C366.218 78.7231 364.845 79.0252 363.497 79.4084C359.18 80.6613 355.58 82.8723 354.46 86.7784C353.502 89.7838 352.961 92.894 352.851 96.0311C352.61 98.9657 351.242 102.939 352.27 107.495C353.298 112.051 353.801 115.059 357.522 116.748C359.623 117.747 361.991 118.137 364.326 117.866C364.254 119.48 364.082 121.089 363.809 122.684C363.451 125.361 362.815 127.997 361.909 130.556L377.246 137.598L390.833 129.31C390.833 129.31 386.744 132.66 385.716 126.134C384.688 119.608 386.425 97.1366 386.595 96.5872C386.765 96.0378 385.425 84.9828 385.425 84.9828L379.755 79.462L367.607 78.5039Z" fill="#864F40"/>
<path d="M358.472 81.6125C358.472 81.6125 369.705 78.5774 373.448 84.6945C377.19 90.8116 375.928 95.8165 375.928 95.8165C375.928 95.8165 379.933 91.361 382.215 94.8517C384.497 98.3424 379.181 102.738 381.173 112.788C383.165 122.838 385.716 126.141 385.716 126.141L393.13 132.251L414.392 130.368C414.392 130.368 420.367 119.695 411.734 112.788C403.102 105.88 392.832 108.051 392.832 108.051C392.832 108.051 396.744 98.9521 394.611 90.1751C392.478 81.3981 385.709 76.487 376.134 75.7969C366.559 75.1068 358.479 81.6125 358.479 81.6125" fill="#848484"/>
<path d="M268.687 199.358C268.687 199.358 260.451 198.106 252.889 201.027C245.327 203.948 236.418 211.258 234.192 216.269C232.948 218.958 231.98 221.754 231.301 224.617C231.819 224.861 232.39 224.988 232.97 224.988C233.549 224.988 234.12 224.861 234.639 224.617C236.418 223.78 245.766 214.387 251.996 213.134C258.226 211.881 265.781 211.881 266.49 211.465C267.199 211.05 268.715 199.358 268.715 199.358" fill="#864F40"/>
<path d="M414.576 132.801L363.419 170.441L374.277 188.692L442.317 159.266C442.317 159.266 456.073 152.881 451.247 139.42C446.42 125.96 385.865 126.63 385.865 126.63C385.865 126.63 380.067 133.698 372.108 133.243C364.149 132.787 361.973 128.452 361.973 128.452C361.973 128.452 349.534 131.494 343.389 140.09C337.358 148.532 318.533 201.228 318.533 201.228C318.533 201.228 304.777 200.558 298.022 199.171C291.268 197.784 274.853 197.576 265.923 198.715L263.031 211.264L322.878 227.921L340.009 226.091L369.45 200.33" fill="#F1B658"/>
<path d="M186.288 336.869L163.246 363.14L110.565 327.034C110.565 327.034 112.776 323.563 118.581 324.354C124.591 325.158 146.144 324.474 153.827 321.56C154.174 321.426 154.536 321.285 154.876 321.131C155.989 323.389 158.533 326.343 164.132 329.466C171.673 333.673 180.611 335.851 186.259 336.883" fill="#C5B4E2"/>
<mask id="mask0_20_4220" style="mask-type:luminance" maskUnits="userSpaceOnUse" x="110" y="321" width="77" height="43">
<path d="M153.855 321.546C146.173 324.461 124.619 325.144 118.609 324.34C112.805 323.563 110.593 327.02 110.593 327.02L163.246 363.14L186.288 336.843C180.618 335.811 171.709 333.633 164.161 329.426C158.554 326.303 156.017 323.349 154.904 321.091C154.55 321.245 154.196 321.386 153.855 321.52" fill="white"/>
</mask>
<g mask="url(#mask0_20_4220)">
<path d="M186.245 337.01L163.204 363.301L110.565 327.188C110.565 327.188 112.776 323.724 118.581 324.508C124.591 325.312 146.144 324.628 153.827 321.714C154.174 321.58 154.536 321.439 154.876 321.285C155.989 323.543 158.533 326.498 164.132 329.62C171.673 333.828 180.611 336.005 186.259 337.037" fill="#C5B4E2"/>
</g>
<path d="M194.75 327.329L186.245 337.03C180.575 335.998 171.666 333.821 164.118 329.613C158.519 326.491 155.975 323.536 154.862 321.279C162.403 317.975 171.744 309.473 171.744 309.473L194.75 327.329Z" fill="#864F40"/>
<path d="M371.208 199.814C371.208 199.814 341.83 200.745 341.341 200.283L326.16 222.038C326.16 222.038 304.614 216.946 291.884 213.241C279.155 209.536 253.69 204.906 235.085 223.887C216.481 242.868 161.637 306.746 161.637 306.746L192.971 336.829L226.8 304.85C220.138 332.32 213.525 359.991 213.525 359.991H269.835L286.484 276.241L313.905 272.536H353.595L371.208 199.814Z" fill="#002169"/>
<path d="M365.935 171.306C365.935 171.306 351.051 174.93 347.89 178.95C344.155 183.64 341.667 186.595 341.667 186.595C343.962 186.521 346.189 185.841 348.095 184.632C349.64 183.552 351.303 182.634 353.057 181.892C353.057 181.892 349.74 191.694 346.416 193.65C343.092 195.607 336.493 201.302 336.493 202.085C336.493 202.869 338.152 201.884 339.81 202.474C341.469 203.064 341.674 203.848 343.751 203.258C345.827 202.668 345.827 202.869 347.486 203.258C349.144 203.647 348.521 204.631 350.803 203.452C353.085 202.273 354.949 202.869 357.855 201.101C360.761 199.332 372.576 185.811 372.576 185.811L365.935 171.306Z" fill="#864F40"/>
<path d="M273.996 291.718V397.853H289.971V302.7H345.452L365.084 397.853H377.36L358.705 301.708H408.29L442.664 397.853H456.407L416.15 286.901L318.937 285.916L273.996 291.718Z" fill="#BEAED5"/>
<path d="M273.996 291.356H417.83L450.645 174.106C451.107 172.454 451.165 170.724 450.814 169.047C450.463 167.37 449.712 165.791 448.619 164.43C447.526 163.068 446.119 161.96 444.505 161.19C442.891 160.419 441.113 160.006 439.305 159.983L380.11 159.226L347.422 272.817L284.606 272.415C283.163 272.406 281.733 272.671 280.401 273.194C279.068 273.717 277.861 274.488 276.85 275.462C275.839 276.435 275.046 277.59 274.516 278.859C273.987 280.127 273.733 281.484 273.769 282.847L273.996 291.356Z" fill="#BFE8CA"/>
<path d="M385.865 126.63C385.865 126.63 446.435 125.96 451.261 139.407C456.088 152.854 442.331 159.252 442.331 159.252L374.291 188.679L363.433 170.428L414.59 132.787" fill="#F1B658"/>
</svg>
